<?xml version="1.0"?>
<svg width="192" height="192" xmlns="http://www.w3.org/2000/svg" xmlns:svg="http://www.w3.org/2000/svg" version="1.1">
 <defs>
  <linearGradient id="waveGradient" x1="0%" x2="100%" y1="0%" y2="0%">
   <stop offset="0%" stop-color="#00D4FF"/>
   <stop offset="50%" stop-color="#007BFF"/>
   <stop offset="100%" stop-color="#001D6C"/>
  </linearGradient>
 </defs>
 <g class="layer">
  <title>Layer 1</title>
  <path d="m7.85,39.15l0.07,-11.9m180.01,43.67c-6.27,8.18 -16.61,16.86 -25.1,21.07c-17.94,8.91 -36.98,8.1 -62.87,-2.65c-23.91,-9.93 -30.32,-12.21 -40.09,-14.22c-17.01,-3.51 -33.19,-1.56 -46.53,5.63c-3.96,2.13 -11.24,7.18 -10.97,7.61c0.06,0.1 1.15,-0.33 2.42,-0.95c10.18,-4.99 19.02,-6.74 32.29,-6.38c7.52,0.2 9.86,0.43 14.37,1.4c11.55,2.49 19.55,5.43 41.86,15.41c19.93,8.91 29.5,11.59 41.43,11.59c12.89,0 23.36,-3.66 33.31,-11.64c9.13,-7.32 14.08,-13.79 21.51,-28.13c0.71,-1.37 -0.05,-0.78 -1.62,1.27m0.67,9.14c-0.45,0.76 -1.99,3.03 -3.44,5.06c-10.78,15.1 -24.37,25.3 -38.35,28.78c-15.74,3.91 -30.22,0.97 -52.97,-10.76c-13.73,-7.08 -21.22,-10.46 -29.49,-13.32c-5.55,-1.92 -13.01,-3.54 -17.31,-3.75c-2.07,-0.1 -3.39,-0.09 -2.93,0.02c10.55,2.67 22.45,8.61 43.24,21.57c18.94,11.81 28.57,16.09 40.17,17.85c5.05,0.77 15.12,0.32 19.37,-0.86c18.58,-5.16 34.5,-21.57 42.12,-43.4c0.99,-2.83 0.83,-3.3 -0.42,-1.19m-171.29,7.1c-1.52,0.22 -3.45,0.57 -4.28,0.78c-1.4,0.34 -1.22,0.4 2.21,0.7c18.44,1.64 31.32,7.65 64.1,29.92c8.46,5.75 12.25,8.24 15.75,10.33c14.41,8.64 24.85,12.31 36.75,12.93c19.87,1.02 37.97,-9.61 50.15,-29.46c2.67,-4.36 6.47,-12.03 6.18,-12.49c-0.06,-0.09 -1.04,1.05 -2.18,2.52c-4.59,5.96 -11.87,13.11 -17.33,17.04c-18.35,13.2 -37.01,14.73 -59.43,4.89c-6.51,-2.86 -13.56,-6.8 -23.67,-13.24c-14.33,-9.13 -19.5,-12.07 -28.74,-16.32c-7.59,-3.5 -14.28,-5.7 -21.14,-6.93c-4.65,-0.84 -14.7,-1.2 -18.37,-0.66" fill="url(#waveGradient)" fill-rule="evenodd" id="svg_1"/>
 </g>
</svg>