<?xml version="1.0"?>
<svg width="512" height="512" xmlns="http://www.w3.org/2000/svg" xmlns:svg="http://www.w3.org/2000/svg" version="1.1">
 <defs>
  <linearGradient id="waveGradient" x1="0%" x2="100%" y1="0%" y2="0%">
   <stop offset="0%" stop-color="#00D4FF"/>
   <stop offset="50%" stop-color="#007BFF"/>
   <stop offset="100%" stop-color="#001D6C"/>
  </linearGradient>
 </defs>
 <g class="layer">
  <title>Layer 1</title>
  <path d="m41.85,89.48l0.18,-29.23m442.16,107.26c-15.4,20.09 -40.79,41.41 -61.67,51.77c-44.06,21.88 -90.83,19.9 -154.44,-6.51c-58.72,-24.4 -74.48,-29.98 -98.46,-34.93c-41.78,-8.63 -81.52,-3.82 -114.29,13.83c-9.73,5.23 -27.6,17.63 -26.95,18.7c0.15,0.24 2.82,-0.81 5.95,-2.34c25,-12.25 46.73,-16.55 79.3,-15.68c18.46,0.49 24.22,1.05 35.29,3.44c28.38,6.11 48.01,13.34 102.82,37.85c48.96,21.89 72.46,28.47 101.75,28.47c31.67,0 57.38,-8.99 81.83,-28.59c22.43,-17.99 34.58,-33.88 52.84,-69.11c1.75,-3.37 -0.13,-1.92 -3.97,3.11m1.66,22.44c-1.1,1.86 -4.89,7.45 -8.44,12.42c-26.48,37.1 -59.86,62.15 -94.19,70.68c-38.65,9.61 -74.24,2.39 -130.11,-26.42c-33.73,-17.39 -52.12,-25.69 -72.43,-32.73c-13.63,-4.72 -31.97,-8.69 -42.53,-9.22c-5.08,-0.25 -8.33,-0.23 -7.21,0.05c25.91,6.57 55.14,21.15 106.21,52.99c46.52,29.02 70.19,39.53 98.68,43.85c12.41,1.88 37.14,0.78 47.58,-2.12c45.63,-12.68 84.75,-52.98 103.47,-106.6c2.43,-6.96 2.03,-8.1 -1.02,-2.91m-420.74,17.45c-3.73,0.55 -8.46,1.4 -10.52,1.9c-3.43,0.84 -2.99,0.99 5.43,1.73c45.3,4.04 76.94,18.8 157.45,73.48c20.78,14.12 30.1,20.23 38.68,25.38c35.39,21.23 61.04,30.25 90.26,31.76c48.81,2.52 93.27,-23.6 123.18,-72.36c6.57,-10.71 15.9,-29.56 15.19,-30.68c-0.14,-0.22 -2.55,2.57 -5.35,6.2c-11.29,14.65 -29.15,32.2 -42.57,41.85c-45.08,32.41 -90.91,36.19 -145.98,12.02c-16,-7.02 -33.31,-16.7 -58.15,-32.53c-35.2,-22.43 -47.89,-29.64 -70.58,-40.1c-18.64,-8.59 -35.09,-13.99 -51.92,-17.02c-11.42,-2.06 -36.11,-2.94 -45.13,-1.63" fill="url(#waveGradient)" fill-rule="evenodd" id="svg_1"/>
 </g>
</svg>