<?xml version="1.0" encoding="UTF-8" standalone="no"?>
<svg
   width="512"
   height="512"
   version="1.1"
   id="svg3"
   sodipodi:docname="512.svg"
   inkscape:version="1.4.3 (0d15f75, 2025-12-25)"
   xmlns:inkscape="http://www.inkscape.org/namespaces/inkscape"
   xmlns:sodipodi="http://sodipodi.sourceforge.net/DTD/sodipodi-0.dtd"
   xmlns="http://www.w3.org/2000/svg"
   xmlns:svg="http://www.w3.org/2000/svg">
  <sodipodi:namedview
     id="namedview3"
     pagecolor="#ffffff"
     bordercolor="#000000"
     borderopacity="0.25"
     inkscape:showpageshadow="2"
     inkscape:pageopacity="0.0"
     inkscape:pagecheckerboard="0"
     inkscape:deskcolor="#d1d1d1"
     inkscape:zoom="2.36"
     inkscape:cx="259.32203"
     inkscape:cy="250.21186"
     inkscape:window-width="1920"
     inkscape:window-height="1057"
     inkscape:window-x="-8"
     inkscape:window-y="-8"
     inkscape:window-maximized="1"
     inkscape:current-layer="g3" />
  <defs
     id="defs3">
    <linearGradient
       id="waveGradient"
       x1="15.030558"
       x2="378.58333"
       y1="77.793453"
       y2="77.793453"
       gradientTransform="matrix(0.6455888,0,0,0.38724339,127.05636,100.5167)"
       gradientUnits="userSpaceOnUse">
      <stop
         offset="0%"
         stop-color="#00D4FF"
         id="stop1" />
      <stop
         offset="50%"
         stop-color="#007BFF"
         id="stop2" />
      <stop
         offset="100%"
         stop-color="#001D6C"
         id="stop3" />
    </linearGradient>
  </defs>
  <g
     class="layer"
     id="g3">
    <title
       id="title3">Layer 1</title>
    <path
       d="m 147.98136,145.2567 0.09,-14.615 m 221.08,53.63 c -7.7,10.045 -20.395,20.705 -30.835,25.885 -22.03,10.94 -39.71848,20.0061 -81.86135,-11.4484 -38.90359,-29.04737 -50.83092,-38.98214 -64.12529,-43.75975 -23.16225,-8.32622 -36.39904,5.78842 -46.87322,25.04782 -3.10989,5.71332 -8.93495,17.40332 -8.68903,17.79871 0.0566,0.0876 0.96695,-1.18711 1.99565,-2.89884 8.21597,-13.68763 13.6737,-25.38312 26.3711,-31.28133 7.19666,-3.34447 10.08443,-3.05075 15.61943,-1.85575 14.19,3.055 28.06025,13.82875 65.76103,44.25896 33.67665,27.1799 42.64168,25.55358 57.28668,25.55358 15.835,0 28.69,-4.495 40.915,-14.295 11.215,-8.995 17.29,-16.94 26.42,-34.555 0.875,-1.685 -0.065,-0.96 -1.985,1.555 m 0.83,11.22 c -0.55,0.93 -2.445,3.725 -4.22,6.21 -13.24,18.55 -29.93,31.075 -47.095,35.34 -19.325,4.805 -32.24278,9.80478 -70.39986,-22.64531 -23.03606,-19.58882 -36.93358,-32.0402 -49.48331,-39.78764 -8.42185,-5.19658 -18.17049,-8.20305 -23.09094,-7.83333 -2.36689,0.18059 -3.7661,0.58918 -3.2636,0.62766 11.62739,0.94138 30.4925,15.73411 66.48587,50.11635 32.78828,31.33032 41.81184,31.62227 56.05684,33.78227 6.205,0.94 18.57,0.39 23.79,-1.06 22.815,-6.34 42.375,-26.49 51.735,-53.3 1.215,-3.48 1.015,-4.05 -0.51,-1.455 M 148.66492,184.88406 c -1.16476,1.51114 -2.63651,3.51299 -3.27766,4.44942 -1.06735,1.5633 -0.91974,1.51052 1.77138,-0.80077 14.48019,-12.40221 26.82686,-11.15371 82.66142,43.68898 14.41206,14.16018 19.85571,18.59855 24.73609,22.21576 20.12963,14.91286 31.10021,16.14925 45.71021,16.90425 24.405,1.26 46.635,-11.8 61.59,-36.18 3.285,-5.355 7.95,-14.78 7.595,-15.34 -0.07,-0.11 -1.275,1.285 -2.675,3.1 -5.645,7.325 -14.575,16.1 -21.285,20.925 -22.54,16.205 -45.455,18.095 -72.99,6.01 -8,-3.51 -18.06479,-10.83871 -35.50886,-27.62274 -24.71923,-23.78261 -34.57001,-33.57638 -47.85325,-42.22798 -10.912,-7.10537 -18.50627,-8.69193 -25.06257,-6.92575 -4.44893,1.19616 -12.59776,8.16369 -15.41492,11.80708"
       fill="url(#waveGradient)"
       fill-rule="evenodd"
       id="svg_1"
       sodipodi:nodetypes="ccccccccccccscccccccccccccscccccccccccccccc"
       style="fill:url(#waveGradient);stroke-width:0.5" />
  </g>
</svg>
