<?xml version="1.0" encoding="utf-8" ?>
<svg baseProfile="tiny" height="700" version="1.2" viewBox="0,0,700,700" width="700" xmlns="http://www.w3.org/2000/svg" xmlns:ev="http://www.w3.org/2001/xml-events" xmlns:xlink="http://www.w3.org/1999/xlink"><defs /><path d="M 519 281 533 321 541 321 551 293 554 296 562 321 570 321 584 282 576 282 566 311 556 282 548 281 537 311 527 281 Z" fill="rgb(75,84,91)" stroke="none" /><path d="M 477 285 471 294 471 308 473 312 479 318 486 321 498 321 507 316 510 312 513 304 513 298 511 291 509 288 503 283 498 281 484 281 Z" fill="rgb(75,84,91)" stroke="none" /><path d="M 388 281 379 282 368 312 354 281 346 281 363 320 363 323 358 330 351 330 349 328 346 333 347 335 358 337 366 333 Z" fill="rgb(75,84,91)" stroke="none" /><path d="M 306 285 300 294 299 300 302 312 309 319 315 321 327 321 332 319 337 314 334 311 325 315 317 315 310 310 308 304 340 303 340 294 337 288 333 284 327 281 313 281 Z" fill="rgb(75,84,91)" stroke="none" /><path d="M 249 281 249 321 257 321 257 298 259 293 268 287 274 288 278 292 280 298 280 321 287 321 287 289 285 285 280 281 266 281 258 288 256 281 Z" fill="rgb(75,84,91)" stroke="none" /><path d="M 201 285 195 294 195 308 197 312 203 318 210 321 221 321 227 319 231 316 234 312 237 305 237 297 236 296 236 293 233 288 229 284 223 281 208 281 Z" fill="rgb(75,84,91)" stroke="none" /><path d="M 436 268 399 268 399 321 407 321 408 299 433 299 433 292 408 292 407 276 409 274 436 274 Z" fill="rgb(75,84,91)" stroke="none" /><path d="M 124 268 124 321 132 320 133 284 150 314 156 313 172 284 173 321 181 321 181 268 172 268 153 302 133 268 Z" fill="rgb(75,84,91)" stroke="none" /><path d="M 449 265 449 317 454 321 463 321 465 320 465 314 461 315 457 312 457 268 456 267 457 266 456 265 Z" fill="rgb(75,84,91)" stroke="none" /><path d="M 323 380 327 383 328 382 331 383 334 386 376 401 382 402 381 401 384 398 386 400 388 400 389 398 388 392 390 390 370 386 340 377 336 378 333 375 327 376 Z" fill="rgb(62,160,209)" stroke="none" /><path d="M 272 345 275 348 279 347 280 351 285 353 290 353 351 371 347 368 352 366 351 364 356 361 356 357 358 356 363 358 302 342 294 343 286 348 283 346 292 340 279 341 277 345 Z" fill="rgb(62,160,209)" stroke="none" /><path d="M 527 391 519 394 519 389 516 386 511 388 510 386 512 384 515 384 516 382 508 386 484 393 468 395 464 397 459 396 457 399 455 399 455 402 453 404 457 405 461 401 463 407 461 409 458 408 459 409 475 409 506 401 Z" fill="rgb(38,120,183)" stroke="none" /><path d="M 494 369 490 366 484 367 482 370 480 368 466 370 434 371 432 370 427 371 427 375 423 378 423 381 420 382 425 385 439 386 486 382 486 381 482 382 480 379 483 372 485 370 487 371 485 369 489 367 Z" fill="rgb(38,120,183)" stroke="none" /><path d="M 572 376 539 398 511 410 475 419 436 420 432 422 431 427 425 429 438 432 430 435 458 435 506 425 541 407 554 397 Z" fill="rgb(31,51,132)" stroke="none" /><path d="M 153 354 171 355 189 358 214 364 228 369 227 366 223 365 226 361 228 360 236 361 230 359 228 360 226 358 189 353 154 353 Z" fill="rgb(42,105,172)" stroke="none" /><path d="M 578 342 553 363 523 381 518 383 517 382 515 385 512 385 511 387 516 385 520 389 519 393 521 393 523 391 534 387 543 381 567 359 Z" fill="rgb(42,105,172)" stroke="none" /><path d="M 576 329 558 341 533 354 503 365 492 366 495 369 494 370 489 368 486 369 481 379 482 381 505 377 531 366 555 350 Z" fill="rgb(42,105,172)" stroke="none" /><path d="M 220 361 224 362 224 365 227 365 229 369 243 372 245 375 345 415 339 412 341 407 338 401 331 399 332 395 336 395 253 365 237 361 225 363 Z" fill="rgb(34,87,161)" stroke="none" /><path d="M 231 351 285 367 326 383 322 380 327 375 333 374 336 377 343 377 290 361 257 354 Z" fill="rgb(62,184,222)" stroke="none" /><path d="M 126 350 175 342 219 342 284 353 280 352 279 348 275 349 272 344 285 339 290 341 284 346 288 347 299 341 291 342 290 339 241 332 198 332 164 337 Z" fill="rgb(62,184,222)" stroke="none" /><path d="M 382 401 393 405 430 411 461 411 457 408 462 407 461 402 457 406 454 406 452 404 454 402 454 399 458 396 421 396 403 393 398 394 393 391 389 392 390 398 388 401 384 399 Z" fill="rgb(49,138,195)" stroke="none" /><path d="M 348 368 352 371 354 370 375 377 424 385 419 382 422 381 422 378 426 375 426 371 432 369 434 370 394 365 358 357 357 361 352 364 353 366 Z" fill="rgb(49,138,195)" stroke="none" /><path d="M 332 396 332 399 339 401 339 406 342 407 340 412 347 416 381 427 409 433 429 435 430 433 437 432 427 432 424 429 426 426 431 426 431 422 435 420 389 413 349 400 340 399 338 396 Z" fill="rgb(34,68,147)" stroke="none" /></svg>