<svg xmlns="http://www.w3.org/2000/svg" width="727" height="276" viewBox="0 0 727 276" version="1.1"><path d="M 514.250 5.798 L 508 6.095 508 44.143 C 508 78.144, 508.181 82.497, 509.698 85.066 C 512.716 90.175, 521.725 92.315, 530.250 89.947 C 533.998 88.907, 534 88.902, 534 83.453 L 534 78 529.360 78 C 526.114 78, 524.321 77.474, 523.392 76.250 C 522.349 74.876, 522.057 67.155, 522.032 40.309 C 522.014 21.504, 521.663 5.979, 521.250 5.809 C 520.837 5.639, 517.688 5.634, 514.250 5.798 M 33 50 L 33 90 39.984 90 L 46.967 90 47.234 63.303 L 47.500 36.605 59.473 58.303 L 71.446 80 75.973 79.990 L 80.500 79.980 85.371 70.740 C 88.050 65.658, 93.450 55.697, 97.371 48.603 L 104.500 35.707 104.766 62.853 L 105.032 90 111.943 90 C 117.600 90, 118.912 89.697, 119.177 88.332 C 119.355 87.414, 119.377 69.395, 119.227 48.290 L 118.954 9.917 111.373 10.208 L 103.793 10.500 90.146 35.220 C 82.641 48.816, 76.267 59.954, 75.983 59.970 C 75.698 59.987, 69.173 48.760, 61.483 35.022 L 47.500 10.043 40.250 10.022 L 33 10 33 50 M 435 50 L 435 90 442.500 90 L 450 90 450 74 L 450 58 469 58 L 488 58 488 52 L 488 46 469 46 L 450 46 450 34.520 L 450 23.040 471.250 22.770 L 492.500 22.500 492.798 16.250 L 493.095 10 464.048 10 L 435 10 435 50 M 158 29.935 C 149.646 32.485, 143.196 37.964, 138.759 46.278 C 136.876 49.805, 136.505 52.063, 136.503 60 C 136.500 68.655, 136.763 69.974, 139.454 74.833 C 142.964 81.169, 146.569 84.410, 154 87.910 C 161.539 91.460, 174.946 91.580, 182.500 88.165 C 193.889 83.016, 200.308 72.883, 200.346 59.992 C 200.402 41.350, 187.427 28.872, 168.212 29.086 C 163.971 29.133, 159.375 29.515, 158 29.935 M 216 59.500 L 216 90 222.921 90 L 229.841 90 230.171 71.750 C 230.464 55.497, 230.725 53.117, 232.554 50.003 C 235.599 44.820, 240.366 42, 246.083 42 C 252.573 42, 255.627 43.340, 257.996 47.225 C 259.813 50.206, 259.993 52.275, 259.996 70.250 L 260 90 267.582 90 L 275.164 90 274.832 67.250 C 274.517 45.687, 274.376 44.249, 272.129 39.684 C 268.550 32.416, 263.626 29.590, 253.753 29.141 C 244.288 28.710, 238.506 30.560, 233.420 35.647 C 231.539 37.528, 229.967 38.489, 229.926 37.783 C 229.813 35.832, 229.033 31.653, 228.520 30.250 C 228.223 29.439, 225.946 29, 222.031 29 L 216 29 216 59.500 M 310.365 30.033 C 305.051 31.668, 297.652 37.273, 294.415 42.116 C 290.644 47.758, 288.496 57.089, 289.449 63.686 C 291.055 74.802, 297.250 83.354, 306.994 87.907 C 311.717 90.113, 313.851 90.475, 322 90.450 C 329.825 90.426, 332.324 90.018, 336.172 88.137 C 340.601 85.972, 348.034 79.713, 347.971 78.202 C 347.955 77.816, 346.042 76.353, 343.721 74.951 L 339.500 72.403 335.192 75.435 C 331.527 78.014, 329.810 78.513, 323.692 78.772 C 317.648 79.028, 315.865 78.708, 312.520 76.768 C 309.153 74.814, 304.072 68.242, 304.016 65.768 C 304.007 65.366, 314.688 64.916, 327.750 64.768 L 351.500 64.500 351.373 57.500 C 351.165 45.993, 346.329 37.681, 336.824 32.491 C 332.230 29.983, 330.267 29.549, 322.500 29.327 C 317.550 29.185, 312.089 29.503, 310.365 30.033 M 357 29.433 C 357 30.922, 362.882 45.034, 372.409 66.402 L 383.066 90.304 380.783 94.902 C 377.260 101.999, 372.717 103.249, 363.870 99.558 C 361.653 98.633, 356.247 107.876, 358.223 109.211 C 369.196 116.621, 383.050 115.028, 389.837 105.577 C 392.981 101.200, 402.528 78.642, 421.718 30.250 C 422.087 29.320, 420.383 29, 415.071 29 L 407.929 29 406.120 33.250 C 405.125 35.587, 401.228 46.002, 397.459 56.394 C 392.224 70.828, 390.408 74.840, 389.763 73.394 C 389.299 72.352, 384.971 62.050, 380.144 50.500 L 371.369 29.500 364.184 29.206 C 360.233 29.045, 357 29.147, 357 29.433 M 559.005 30.688 C 556.250 31.694, 552.317 34.523, 548.844 37.996 C 542.239 44.601, 540 50.430, 540 61.022 C 540 72.707, 546.950 83.305, 557.949 88.394 C 561.567 90.068, 564.449 90.500, 572 90.500 C 580.372 90.500, 582.174 90.169, 587.182 87.710 C 593.343 84.684, 597.709 80.341, 601.241 73.722 C 603.125 70.193, 603.494 67.940, 603.494 60 C 603.494 49.450, 601.781 44.685, 595.642 38.161 C 589.898 32.057, 583.752 29.661, 573 29.334 C 566.088 29.125, 562.276 29.493, 559.005 30.688 M 611.325 29.637 C 610.227 30.085, 615.365 46.020, 627.404 79.500 C 629.381 85, 631 89.612, 631 89.750 C 631 89.888, 634.282 90, 638.294 90 L 645.588 90 647.320 84.250 C 651.120 71.627, 659.322 48.988, 659.893 49.546 C 660.227 49.872, 663.461 58.995, 667.080 69.820 L 673.660 89.500 680.703 89.791 L 687.746 90.082 692.576 76.291 C 695.233 68.706, 699.960 55.300, 703.082 46.500 C 706.203 37.700, 708.428 30.138, 708.024 29.696 C 707.621 29.253, 704.638 29.028, 701.396 29.196 L 695.500 29.500 688.862 49.500 C 685.211 60.500, 681.911 70.400, 681.528 71.500 C 681.034 72.920, 678.705 67.123, 673.493 51.500 L 666.153 29.500 659.959 29.500 L 653.764 29.500 646.499 50.800 C 642.503 62.515, 638.985 72.349, 638.680 72.654 C 638.375 72.958, 634.914 63.261, 630.989 51.104 L 623.852 29 618.176 29.079 C 615.054 29.122, 611.971 29.374, 611.325 29.637 M 312.500 42.209 C 309.782 43.765, 307.738 46.036, 306.124 49.291 C 304.818 51.926, 303.923 54.257, 304.137 54.470 C 304.351 54.684, 311.945 54.951, 321.013 55.063 L 337.500 55.268 337.282 52.415 C 336.790 45.984, 330.344 40.773, 322.263 40.273 C 317.651 39.988, 315.701 40.375, 312.500 42.209 M 160.500 42.828 C 153.289 46.246, 149.346 54.956, 150.975 63.865 C 153.472 77.520, 168.689 83.326, 179.563 74.772 C 185.571 70.046, 187.659 59.250, 184.087 51.384 C 180.051 42.497, 169.371 38.623, 160.500 42.828 M 564.500 42.884 C 549.823 49.636, 551.668 73.872, 567.177 78.048 C 574.654 80.061, 582.108 77.229, 586.284 70.788 C 589.914 65.190, 590.091 56.412, 586.706 49.907 C 582.605 42.027, 572.980 38.983, 564.500 42.884 M 695 98.586 C 672.310 116.943, 634.900 136.417, 604.142 145.884 C 539.220 165.867, 470.308 164.063, 376.579 139.926 C 290.060 117.645, 266.838 112.538, 231.500 108.017 C 169.937 100.141, 111.390 104.532, 63.097 120.649 C 48.773 125.429, 22.428 136.761, 23.393 137.727 C 23.614 137.947, 27.553 136.985, 32.147 135.589 C 68.978 124.396, 100.998 120.472, 149 121.269 C 176.203 121.722, 184.678 122.234, 201 124.413 C 242.809 129.994, 271.741 136.597, 352.500 158.990 C 424.642 178.994, 459.265 185, 502.432 185 C 549.101 185, 586.980 176.795, 623 158.884 C 656.046 142.452, 673.952 127.930, 700.847 95.750 C 703.426 92.665, 700.662 94.005, 695 98.586 M 697.437 119.091 C 695.822 120.792, 690.225 125.897, 685 130.436 C 645.987 164.330, 596.798 187.217, 546.211 195.014 C 489.260 203.791, 436.822 197.188, 354.500 170.872 C 304.800 154.984, 277.712 147.395, 247.777 140.971 C 227.695 136.662, 200.682 133.032, 185.122 132.552 C 177.630 132.321, 172.850 132.344, 174.500 132.604 C 212.683 138.601, 255.741 151.921, 331 181.015 C 399.552 207.517, 434.420 217.122, 476.400 221.069 C 494.675 222.787, 531.124 221.779, 546.500 219.131 C 613.733 207.551, 671.382 170.727, 698.954 121.750 C 702.531 115.395, 701.938 114.354, 697.437 119.091 M 77.500 135.032 C 72 135.530, 65.025 136.314, 62 136.774 C 56.950 137.541, 57.605 137.671, 70 138.355 C 136.750 142.037, 183.362 155.524, 302 205.484 C 332.624 218.381, 346.346 223.962, 359 228.666 C 411.154 248.058, 448.936 256.298, 492 257.676 C 563.917 259.976, 629.430 236.119, 673.500 191.580 C 683.181 181.796, 696.926 164.580, 695.878 163.551 C 695.670 163.348, 692.125 165.895, 688 169.212 C 671.365 182.588, 645.048 198.629, 625.283 207.441 C 558.859 237.053, 491.333 240.499, 410.181 218.418 C 386.614 212.006, 361.104 203.157, 324.500 188.697 C 272.644 168.212, 253.939 161.624, 220.500 152.067 C 193.025 144.215, 168.801 139.293, 144 136.522 C 127.178 134.643, 90.798 133.828, 77.500 135.032" stroke="none" fill="#3a6a93" fill-rule="evenodd"/><path d="M 0 138.001 L 0 276.003 363.750 275.751 L 727.500 275.500 727.754 137.750 L 728.007 0 364.004 0 L 0 0 0 138.001 M 0.486 138.500 C 0.486 214.400, 0.605 245.598, 0.750 207.828 C 0.895 170.059, 0.895 107.959, 0.750 69.828 C 0.605 31.698, 0.486 62.600, 0.486 138.500 M 514.250 5.798 L 508 6.095 508 44.143 C 508 78.144, 508.181 82.497, 509.698 85.066 C 512.716 90.175, 521.725 92.315, 530.250 89.947 C 533.998 88.907, 534 88.902, 534 83.453 L 534 78 529.360 78 C 526.114 78, 524.321 77.474, 523.392 76.250 C 522.349 74.876, 522.057 67.155, 522.032 40.309 C 522.014 21.504, 521.663 5.979, 521.250 5.809 C 520.837 5.639, 517.688 5.634, 514.250 5.798 M 33 50 L 33 90 39.984 90 L 46.967 90 47.234 63.303 L 47.500 36.605 59.473 58.303 L 71.446 80 75.973 79.990 L 80.500 79.980 85.371 70.740 C 88.050 65.658, 93.450 55.697, 97.371 48.603 L 104.500 35.707 104.766 62.853 L 105.032 90 111.943 90 C 117.600 90, 118.912 89.697, 119.177 88.332 C 119.355 87.414, 119.377 69.395, 119.227 48.290 L 118.954 9.917 111.373 10.208 L 103.793 10.500 90.146 35.220 C 82.641 48.816, 76.267 59.954, 75.983 59.970 C 75.698 59.987, 69.173 48.760, 61.483 35.022 L 47.500 10.043 40.250 10.022 L 33 10 33 50 M 435 50 L 435 90 442.500 90 L 450 90 450 74 L 450 58 469 58 L 488 58 488 52 L 488 46 469 46 L 450 46 450 34.520 L 450 23.040 471.250 22.770 L 492.500 22.500 492.798 16.250 L 493.095 10 464.048 10 L 435 10 435 50 M 158 29.935 C 149.646 32.485, 143.196 37.964, 138.759 46.278 C 136.876 49.805, 136.505 52.063, 136.503 60 C 136.500 68.655, 136.763 69.974, 139.454 74.833 C 142.964 81.169, 146.569 84.410, 154 87.910 C 161.539 91.460, 174.946 91.580, 182.500 88.165 C 193.889 83.016, 200.308 72.883, 200.346 59.992 C 200.402 41.350, 187.427 28.872, 168.212 29.086 C 163.971 29.133, 159.375 29.515, 158 29.935 M 216 59.500 L 216 90 222.921 90 L 229.841 90 230.171 71.750 C 230.464 55.497, 230.725 53.117, 232.554 50.003 C 235.599 44.820, 240.366 42, 246.083 42 C 252.573 42, 255.627 43.340, 257.996 47.225 C 259.813 50.206, 259.993 52.275, 259.996 70.250 L 260 90 267.582 90 L 275.164 90 274.832 67.250 C 274.517 45.687, 274.376 44.249, 272.129 39.684 C 268.550 32.416, 263.626 29.590, 253.753 29.141 C 244.288 28.710, 238.506 30.560, 233.420 35.647 C 231.539 37.528, 229.967 38.489, 229.926 37.783 C 229.813 35.832, 229.033 31.653, 228.520 30.250 C 228.223 29.439, 225.946 29, 222.031 29 L 216 29 216 59.500 M 310.365 30.033 C 305.051 31.668, 297.652 37.273, 294.415 42.116 C 290.644 47.758, 288.496 57.089, 289.449 63.686 C 291.055 74.802, 297.250 83.354, 306.994 87.907 C 311.717 90.113, 313.851 90.475, 322 90.450 C 329.825 90.426, 332.324 90.018, 336.172 88.137 C 340.601 85.972, 348.034 79.713, 347.971 78.202 C 347.955 77.816, 346.042 76.353, 343.721 74.951 L 339.500 72.403 335.192 75.435 C 331.527 78.014, 329.810 78.513, 323.692 78.772 C 317.648 79.028, 315.865 78.708, 312.520 76.768 C 309.153 74.814, 304.072 68.242, 304.016 65.768 C 304.007 65.366, 314.688 64.916, 327.750 64.768 L 351.500 64.500 351.373 57.500 C 351.165 45.993, 346.329 37.681, 336.824 32.491 C 332.230 29.983, 330.267 29.549, 322.500 29.327 C 317.550 29.185, 312.089 29.503, 310.365 30.033 M 357 29.433 C 357 30.922, 362.882 45.034, 372.409 66.402 L 383.066 90.304 380.783 94.902 C 377.260 101.999, 372.717 103.249, 363.870 99.558 C 361.653 98.633, 356.247 107.876, 358.223 109.211 C 369.196 116.621, 383.050 115.028, 389.837 105.577 C 392.981 101.200, 402.528 78.642, 421.718 30.250 C 422.087 29.320, 420.383 29, 415.071 29 L 407.929 29 406.120 33.250 C 405.125 35.587, 401.228 46.002, 397.459 56.394 C 392.224 70.828, 390.408 74.840, 389.763 73.394 C 389.299 72.352, 384.971 62.050, 380.144 50.500 L 371.369 29.500 364.184 29.206 C 360.233 29.045, 357 29.147, 357 29.433 M 559.005 30.688 C 556.250 31.694, 552.317 34.523, 548.844 37.996 C 542.239 44.601, 540 50.430, 540 61.022 C 540 72.707, 546.950 83.305, 557.949 88.394 C 561.567 90.068, 564.449 90.500, 572 90.500 C 580.372 90.500, 582.174 90.169, 587.182 87.710 C 593.343 84.684, 597.709 80.341, 601.241 73.722 C 603.125 70.193, 603.494 67.940, 603.494 60 C 603.494 49.450, 601.781 44.685, 595.642 38.161 C 589.898 32.057, 583.752 29.661, 573 29.334 C 566.088 29.125, 562.276 29.493, 559.005 30.688 M 611.325 29.637 C 610.227 30.085, 615.365 46.020, 627.404 79.500 C 629.381 85, 631 89.612, 631 89.750 C 631 89.888, 634.282 90, 638.294 90 L 645.588 90 647.320 84.250 C 651.120 71.627, 659.322 48.988, 659.893 49.546 C 660.227 49.872, 663.461 58.995, 667.080 69.820 L 673.660 89.500 680.703 89.791 L 687.746 90.082 692.576 76.291 C 695.233 68.706, 699.960 55.300, 703.082 46.500 C 706.203 37.700, 708.428 30.138, 708.024 29.696 C 707.621 29.253, 704.638 29.028, 701.396 29.196 L 695.500 29.500 688.862 49.500 C 685.211 60.500, 681.911 70.400, 681.528 71.500 C 681.034 72.920, 678.705 67.123, 673.493 51.500 L 666.153 29.500 659.959 29.500 L 653.764 29.500 646.499 50.800 C 642.503 62.515, 638.985 72.349, 638.680 72.654 C 638.375 72.958, 634.914 63.261, 630.989 51.104 L 623.852 29 618.176 29.079 C 615.054 29.122, 611.971 29.374, 611.325 29.637 M 312.500 42.209 C 309.782 43.765, 307.738 46.036, 306.124 49.291 C 304.818 51.926, 303.923 54.257, 304.137 54.470 C 304.351 54.684, 311.945 54.951, 321.013 55.063 L 337.500 55.268 337.282 52.415 C 336.790 45.984, 330.344 40.773, 322.263 40.273 C 317.651 39.988, 315.701 40.375, 312.500 42.209 M 160.500 42.828 C 153.289 46.246, 149.346 54.956, 150.975 63.865 C 153.472 77.520, 168.689 83.326, 179.563 74.772 C 185.571 70.046, 187.659 59.250, 184.087 51.384 C 180.051 42.497, 169.371 38.623, 160.500 42.828 M 564.500 42.884 C 549.823 49.636, 551.668 73.872, 567.177 78.048 C 574.654 80.061, 582.108 77.229, 586.284 70.788 C 589.914 65.190, 590.091 56.412, 586.706 49.907 C 582.605 42.027, 572.980 38.983, 564.500 42.884 M 695 98.586 C 672.310 116.943, 634.900 136.417, 604.142 145.884 C 539.220 165.867, 470.308 164.063, 376.579 139.926 C 290.060 117.645, 266.838 112.538, 231.500 108.017 C 169.937 100.141, 111.390 104.532, 63.097 120.649 C 48.773 125.429, 22.428 136.761, 23.393 137.727 C 23.614 137.947, 27.553 136.985, 32.147 135.589 C 68.978 124.396, 100.998 120.472, 149 121.269 C 176.203 121.722, 184.678 122.234, 201 124.413 C 242.809 129.994, 271.741 136.597, 352.500 158.990 C 424.642 178.994, 459.265 185, 502.432 185 C 549.101 185, 586.980 176.795, 623 158.884 C 656.046 142.452, 673.952 127.930, 700.847 95.750 C 703.426 92.665, 700.662 94.005, 695 98.586 M 697.437 119.091 C 695.822 120.792, 690.225 125.897, 685 130.436 C 645.987 164.330, 596.798 187.217, 546.211 195.014 C 489.260 203.791, 436.822 197.188, 354.500 170.872 C 304.800 154.984, 277.712 147.395, 247.777 140.971 C 227.695 136.662, 200.682 133.032, 185.122 132.552 C 177.630 132.321, 172.850 132.344, 174.500 132.604 C 212.683 138.601, 255.741 151.921, 331 181.015 C 399.552 207.517, 434.420 217.122, 476.400 221.069 C 494.675 222.787, 531.124 221.779, 546.500 219.131 C 613.733 207.551, 671.382 170.727, 698.954 121.750 C 702.531 115.395, 701.938 114.354, 697.437 119.091 M 77.500 135.032 C 72 135.530, 65.025 136.314, 62 136.774 C 56.950 137.541, 57.605 137.671, 70 138.355 C 136.750 142.037, 183.362 155.524, 302 205.484 C 332.624 218.381, 346.346 223.962, 359 228.666 C 411.154 248.058, 448.936 256.298, 492 257.676 C 563.917 259.976, 629.430 236.119, 673.500 191.580 C 683.181 181.796, 696.926 164.580, 695.878 163.551 C 695.670 163.348, 692.125 165.895, 688 169.212 C 671.365 182.588, 645.048 198.629, 625.283 207.441 C 558.859 237.053, 491.333 240.499, 410.181 218.418 C 386.614 212.006, 361.104 203.157, 324.500 188.697 C 272.644 168.212, 253.939 161.624, 220.500 152.067 C 193.025 144.215, 168.801 139.293, 144 136.522 C 127.178 134.643, 90.798 133.828, 77.500 135.032" stroke="none" fill="#fbfbfb" fill-rule="evenodd"/></svg>