<?xml version="1.0"?>
<svg width="727" height="276" xmlns="http://www.w3.org/2000/svg" xmlns:svg="http://www.w3.org/2000/svg" version="1.1">
 <defs>
  <linearGradient id="waveGradient" x1="0%" x2="100%" y1="0%" y2="0%">
   <stop offset="0%" stop-color="#00D4FF"/>
   <stop offset="50%" stop-color="#007BFF"/>
   <stop offset="100%" stop-color="#001D6C"/>
  </linearGradient>
 </defs>
 <g class="layer">
  <title>Layer 1</title>
  <path d="m700,102.59c-22.69,18.35 -60.1,37.83 -90.86,47.29c-64.92,19.99 -133.83,18.18 -227.56,-5.95c-86.52,-22.29 -109.74,-27.39 -145.08,-31.91c-61.56,-7.88 -120.11,-3.49 -168.4,12.63c-14.33,4.78 -40.67,16.11 -39.71,17.08c0.22,0.22 4.16,-0.74 8.76,-2.14c36.83,-11.19 68.85,-15.12 116.85,-14.32c27.2,0.45 35.68,0.96 52,3.14c41.81,5.58 70.74,12.19 151.5,34.58c72.14,20 106.76,26.01 149.93,26.01c46.67,0 84.55,-8.21 120.57,-26.12c33.05,-16.43 50.95,-30.95 77.85,-63.13c2.58,-3.08 -0.19,-1.75 -5.85,2.84m2.44,20.5c-1.62,1.7 -7.21,6.81 -12.44,11.35c-39.01,33.89 -88.2,56.78 -138.79,64.57c-56.95,8.78 -109.39,2.18 -191.71,-24.14c-49.7,-15.89 -76.79,-23.47 -106.72,-29.9c-20.09,-4.31 -47.1,-7.94 -62.66,-8.42c-7.49,-0.23 -12.27,-0.21 -10.62,0.05c38.18,6 81.24,19.32 156.5,48.41c68.55,26.51 103.42,36.11 145.4,40.06c18.28,1.72 54.72,0.71 70.1,-1.94c67.23,-11.58 124.88,-48.4 152.45,-97.38c3.58,-6.36 2.99,-7.4 -1.51,-2.66m-619.94,15.94c-5.5,0.5 -12.47,1.28 -15.5,1.74c-5.05,0.77 -4.4,0.9 8,1.58c66.75,3.69 113.36,17.17 232,67.13c30.62,12.9 44.35,18.48 57,23.19c52.15,19.39 89.94,27.63 133,29.01c71.92,2.3 137.43,-21.56 181.5,-66.1c9.68,-9.78 23.43,-27 22.38,-28.03c-0.21,-0.2 -3.75,2.35 -7.88,5.66c-16.63,13.38 -42.95,29.42 -62.72,38.23c-66.42,29.61 -133.95,33.06 -215.1,10.98c-23.57,-6.41 -49.08,-15.26 -85.68,-29.72c-51.86,-20.49 -70.56,-27.08 -104,-36.63c-27.47,-7.85 -51.7,-12.78 -76.5,-15.55c-16.82,-1.88 -53.2,-2.69 -66.5,-1.49" fill="url(#waveGradient)" fill-rule="evenodd" id="svg_1"/>
 </g>
</svg>